<svg width="369" height="97" viewBox="0 0 369 97" fill="none" xmlns="http://www.w3.org/2000/svg">
<mask id="mask0" mask-type="alpha" maskUnits="userSpaceOnUse" x="0" y="0" width="369" height="97">
<path d="M0 0.617188H368.017V96.7922H0V0.617188Z" fill="#C4C4C4"/>
</mask>
<g mask="url(#mask0)">
<path d="M-338.433 -284.068C-306.594 23.5384 13.6938 136.106 278.16 60.4546C662.826 -49.5799 631.414 -353.64 619.284 -558.025C601.629 -855.503 271.571 -978.937 -40.0576 -889.795C-173.255 -851.693 -366.907 -559.162 -338.433 -284.068Z" fill="#D3E7E8"/>
<path d="M-367.164 -284.068C-335.325 23.5384 -15.0367 136.106 249.43 60.4546C634.096 -49.5799 602.684 -353.64 590.554 -558.025C572.898 -855.503 242.84 -978.937 -68.7881 -889.795C-201.986 -851.693 -395.637 -559.162 -367.164 -284.068Z" fill="#EDF7F7"/>
</g>
</svg>
