<svg width="25" height="24" viewBox="0 0 25 24" fill="none" xmlns="http://www.w3.org/2000/svg">
<path d="M12.6345 11.0328L3.97889 2.37779L3.97882 2.37773C3.67998 2.07927 3.19615 2.07927 2.89731 2.37773L2.89725 2.37779C2.59839 2.67665 2.59839 3.16089 2.89725 3.45974L2.89725 3.45974L11.4873 12.0495L2.90338 20.6334C2.60453 20.9322 2.60453 21.4164 2.90338 21.7153C3.05276 21.865 3.24901 21.9394 3.4442 21.9394C3.63974 21.9394 3.83567 21.865 3.98502 21.7153L12.6345 11.0328ZM12.6345 11.0328L21.2893 2.37749C21.5879 2.0789 22.0721 2.079 22.3709 2.37742L22.3709 2.37749C22.6698 2.67634 22.6698 3.16058 22.3709 3.45943L13.7815 12.0495L22.3651 20.6334C22.664 20.9322 22.664 21.4164 22.3651 21.7153C22.2157 21.865 22.0195 21.9394 21.8243 21.9394C21.6289 21.9394 21.433 21.8649 21.2835 21.7153L12.6342 13.0661L3.98515 21.7152L12.6345 11.0328Z" fill="#23F4CD" stroke="#23F4CD" stroke-width="0.294413"/>
</svg>
