<svg width="110" height="31" viewBox="0 0 110 31" fill="none" xmlns="http://www.w3.org/2000/svg">
<rect y="0.384766" width="109.548" height="30.4109" rx="15.2054" fill="#23F4CD"/>
<path d="M31.7346 17.7227V16.6943H33.8081V15.4336H31.7346V14.4715H34.0154V13.1943H30.4076V19H34.0569V17.7227H31.7346ZM38.7314 13.1943V16.346L36.492 13.1943H35.4968V19H36.8238V15.8483L39.0631 19H40.0584V13.1943H38.7314ZM44.0665 13.1943H41.7442V19H44.0665C45.6672 19 46.8864 17.7393 46.8864 16.0971C46.8864 14.455 45.6672 13.1943 44.0665 13.1943ZM44.0665 17.7227H43.0712V14.4715H44.0665C44.9788 14.4715 45.6091 15.1019 45.6091 16.0971C45.6091 17.0924 44.9788 17.7227 44.0665 17.7227ZM53.1203 19.1161C54.3809 19.1161 55.2767 18.4526 55.2767 17.3329C55.2767 16.1054 54.2897 15.7986 53.4106 15.5332C52.5065 15.2595 52.3655 15.077 52.3655 14.8116C52.3655 14.5794 52.5729 14.372 52.9876 14.372C53.5184 14.372 53.7921 14.6291 53.9911 15.0438L55.1108 14.3886C54.6878 13.5343 53.9414 13.0782 52.9876 13.0782C51.984 13.0782 51.0385 13.7251 51.0385 14.8448C51.0385 15.9561 51.8845 16.3708 52.7471 16.6114C53.6179 16.8519 53.9497 16.9929 53.9497 17.3495C53.9497 17.5735 53.7921 17.8223 53.1617 17.8223C52.5065 17.8223 52.1499 17.4988 51.9425 17.0178L50.798 17.6813C51.1215 18.5355 51.9011 19.1161 53.1203 19.1161ZM59.3607 19.1161C60.4223 19.1161 61.3512 18.5936 61.8489 17.7725L60.7043 17.109C60.4555 17.5569 59.9496 17.8223 59.3607 17.8223C58.3322 17.8223 57.6687 17.1339 57.6687 16.0971C57.6687 15.0604 58.3322 14.372 59.3607 14.372C59.9496 14.372 60.4472 14.6374 60.7043 15.0853L61.8489 14.4218C61.3429 13.6007 60.414 13.0782 59.3607 13.0782C57.6107 13.0782 56.3417 14.3886 56.3417 16.0971C56.3417 17.8057 57.6107 19.1161 59.3607 19.1161ZM64.4889 17.7227V16.6943H66.5624V15.4336H64.4889V14.4715H66.7698V13.1943H63.1619V19H66.8112V17.7227H64.4889ZM71.4857 13.1943V16.346L69.2464 13.1943H68.2511V19H69.5781V15.8483L71.8175 19H72.8127V13.1943H71.4857ZM75.8255 17.7227V16.6943H77.899V15.4336H75.8255V14.4715H78.1063V13.1943H74.4985V19H78.1478V17.7227H75.8255Z" fill="#39007C"/>
</svg>
