<svg width="25" height="25" viewBox="0 0 25 25" fill="none" xmlns="http://www.w3.org/2000/svg">
<path d="M11.7922 3.60611L5.59074 7.38095H1.69003C1.30895 7.38095 1 7.6899 1 8.07098V18.3755C1 18.7565 1.30895 19.0655 1.69003 19.0655H5.59074L11.7922 22.8403C13.1721 23.6803 14.9387 22.688 14.9387 21.0721V5.37438C14.9387 3.75897 13.1724 2.76592 11.7922 3.60611Z" fill="#23F4CD"/>
<path d="M18.7815 9.35348C18.512 9.084 18.0751 9.084 17.8056 9.35348C17.5361 9.62296 17.5361 10.0598 17.8056 10.3293C19.4019 11.9256 19.4019 14.5231 17.8056 16.1194C17.5361 16.3889 17.5361 16.8258 17.8056 17.0952C18.0751 17.3647 18.512 17.3648 18.7815 17.0952C20.9159 14.9608 20.9159 11.4879 18.7815 9.35348Z" fill="#23F4CD"/>
<path d="M22.0412 7.27145C21.7718 7.00197 21.3349 7.00197 21.0654 7.27145C20.7959 7.54093 20.7959 7.97781 21.0654 8.24729C23.8562 11.0381 23.8562 15.4102 21.0654 18.201C20.7959 18.4705 20.7959 18.9074 21.0654 19.1768C21.3348 19.4463 21.7718 19.4464 22.0412 19.1768C25.389 15.8291 25.3925 10.6227 22.0412 7.27145V7.27145Z" fill="#23F4CD"/>
<path d="M1.5 0.5L21.5 24" stroke="#23F4CD" stroke-width="1.5"/>
</svg>
