<svg width="24" height="24" viewBox="0 0 24 24" fill="none" xmlns="http://www.w3.org/2000/svg">
<path d="M10.7922 2.60611L4.59074 6.38095H0.690032C0.30895 6.38095 0 6.6899 0 7.07098V17.3755C0 17.7565 0.30895 18.0655 0.690032 18.0655H4.59074L10.7922 21.8403C12.1721 22.6803 13.9387 21.688 13.9387 20.0721V4.37438C13.9387 2.75897 12.1724 1.76592 10.7922 2.60611Z" fill="#23F4CD"/>
<path d="M17.7815 8.35348C17.512 8.084 17.0751 8.084 16.8056 8.35348C16.5361 8.62296 16.5361 9.05984 16.8056 9.32932C18.4019 10.9256 18.4019 13.5231 16.8056 15.1194C16.5361 15.3889 16.5361 15.8258 16.8056 16.0952C17.0751 16.3647 17.512 16.3648 17.7815 16.0952C19.9159 13.9608 19.9159 10.4879 17.7815 8.35348Z" fill="#23F4CD"/>
<path d="M21.0412 6.27145C20.7718 6.00197 20.3349 6.00197 20.0654 6.27145C19.7959 6.54093 19.7959 6.97781 20.0654 7.24729C22.8562 10.0381 22.8562 14.4102 20.0654 17.201C19.7959 17.4705 19.7959 17.9074 20.0654 18.1768C20.3348 18.4463 20.7718 18.4464 21.0412 18.1768C24.389 14.8291 24.3925 9.62275 21.0412 6.27145V6.27145Z" fill="#23F4CD"/>
</svg>
