<svg width="32" height="26" viewBox="0 0 32 26" fill="none" xmlns="http://www.w3.org/2000/svg">
<path fill-rule="evenodd" clip-rule="evenodd" d="M21.5142 2.73093L20.4234 1.09545C20.2196 0.788371 19.7523 0.538891 19.3844 0.538891H12.696C12.3273 0.538891 11.86 0.788371 11.6548 1.09581L10.5651 2.73129H3.6488C1.94024 2.73129 0.549919 4.12089 0.549919 5.82873V22.352C0.549919 24.0609 1.94024 25.4513 3.6488 25.4513H28.4323C30.1405 25.4513 31.5301 24.0609 31.5301 22.352V5.82873C31.5301 4.12089 30.1405 2.73129 28.4323 2.73129H21.5142V2.73093ZM5.357 8.78073C4.39328 8.78073 3.61172 7.99953 3.61172 7.03545C3.61172 6.07137 4.39292 5.29017 5.357 5.29017C6.32108 5.29017 7.10228 6.07137 7.10228 7.03545C7.10228 7.99953 6.32108 8.78073 5.357 8.78073ZM8.8112 14.0915C8.8112 18.0831 12.0487 21.3192 16.04 21.3192C20.032 21.3192 23.2692 18.0831 23.2692 14.0915C23.2692 10.0983 20.032 6.86229 16.04 6.86229C12.0487 6.86229 8.8112 10.0983 8.8112 14.0915Z" fill="#38157B"/>
<path d="M16.04 18.5123C18.4817 18.5123 20.4612 16.5328 20.4612 14.0911C20.4612 11.6494 18.4817 9.66993 16.04 9.66993C13.5983 9.66993 11.6188 11.6494 11.6188 14.0911C11.6188 16.5328 13.5983 18.5123 16.04 18.5123Z" fill="#38157B"/>
</svg>
