<svg width="1438" height="119" viewBox="0 0 1438 119" fill="none" xmlns="http://www.w3.org/2000/svg">
<path fill-rule="evenodd" clip-rule="evenodd" d="M635 118.817C991.224 118.817 1398.4 52.0147 1435.4 -40.493C1472.4 -133.001 1010.22 -211.353 654 -211.353C297.776 -211.353 9 -136.361 9 -43.8529C9 0.10186 70.0799 29.3516 170 58.5788C276.181 89.6372 448.035 118.817 635 118.817Z" fill="#38157B"/>
<path fill-rule="evenodd" clip-rule="evenodd" d="M1237 -78C1102.89 18.6536 945.444 71.1876 773.69 52.1266C608.383 33.7814 454.199 -10.8263 319 -78H1237Z" fill="#FCCFCF"/>
<path fill-rule="evenodd" clip-rule="evenodd" d="M1153 -86H-92C-92 -86 -9.2291 -19.0164 160 36.9728C329.229 92.9619 527.141 106.878 735.132 82.4378C889.806 64.2628 1032.2 3.28827 1153 -86Z" fill="#2B0D65"/>
</svg>
