<?xml version="1.0" encoding="UTF-8"?>
<svg width="32px" height="49px" viewBox="0 0 32 49" version="1.1" xmlns="http://www.w3.org/2000/svg" xmlns:xlink="http://www.w3.org/1999/xlink">
    <!-- Generator: Sketch 64 (93537) - https://sketch.com -->
    <title>ic_tap@1x</title>
    <desc>Created with Sketch.</desc>
    <defs>
        <path d="M26.4092459,18.8288288 L26.4092459,16.1861862 C26.4092459,12.2222222 21.1239606,12.2222222 21.1239606,16.1861862 L21.1239606,13.5435435 C21.1239606,9.57957958 15.8386753,9.57957958 15.8386753,13.5435435 L15.8386753,2.97297297 C15.8386753,-0.990990991 10.55339,-0.990990991 10.55339,2.97297297 L10.55339,28.2921321 L4.53212878,22.2325526 C2.05993659,19.7603604 -1.65826161,23.4970571 0.813930582,25.9705706 L11.3937504,36.5464264 C11.8892459,37.0419219 12.5921888,37.3273273 13.271348,37.3273273 L29.1285252,37.3273273 C30.5872639,37.3273273 31.6945312,36.1315315 31.6945312,34.6714715 L31.6945312,18.8288288 C31.6945312,14.8648649 26.4092459,14.8648649 26.4092459,18.8288288" id="path-1"></path>
    </defs>
    <g id="Page-1" stroke="none" stroke-width="1" fill="none" fill-rule="evenodd">
        <g id="Desktop" transform="translate(-1349.000000, -206.000000)">
            <g id="ic_tap" transform="translate(1349.000000, 206.000000)">
                <g id="Path-+-Path-+-Path-Mask" transform="translate(0.017181, 11.561562)">
                    <mask id="mask-2" fill="white">
                        <use xlink:href="#path-1"></use>
                    </mask>
                    <use id="Mask" fill="#FFC671" fill-rule="nonzero" xlink:href="#path-1"></use>
                    <path d="M16.9326206,10.0228158 L16.9326206,19.6418634 C16.9326206,20.2794175 16.4157375,20.7963007 15.7781834,20.7963007 L15.7781834,12.5855864 C15.7736379,11.6044175 16.19485,10.6694608 16.9326206,10.0228158 Z" id="Path" fill="#FAB652" fill-rule="nonzero" mask="url(#mask-2)"></path>
                    <path d="M22.2299545,12.331582 L22.2299545,19.6418634 C22.2299545,20.2794175 21.7130714,20.7963007 21.0755172,20.7963007 L21.0755172,14.8943526 C21.0709718,13.9131838 21.4921839,12.9783353 22.2299545,12.331582 Z" id="Path" fill="#FAB652" fill-rule="nonzero" mask="url(#mask-2)"></path>
                    <path d="M27.5420584,14.6403483 L27.5420584,19.6417552 C27.5420584,20.2793093 27.0251753,20.7961924 26.3876211,20.7961924 L26.3876211,17.2031188 C26.3830757,16.2220582 26.8042878,15.2871015 27.5420584,14.6403483 Z" id="Path" fill="#FAB652" fill-rule="nonzero" mask="url(#mask-2)"></path>
                </g>
                <path d="M22.9110538,5.16694969 C22.9174863,5.17328178 22.9238653,5.17966798 22.9301901,5.18610762 C23.5653828,5.83283425 23.5647952,6.86938674 22.9288696,7.51539278 L19.5008373,10.9977649 C18.8785936,11.6298722 17.8617411,11.6378682 17.2296337,11.0156244 C17.2232013,11.0092923 17.2168223,11.0029061 17.2104975,10.9964665 C16.5753047,10.3497398 16.5758923,9.31318736 17.2118179,8.66718132 L20.6398502,5.18480925 C21.262094,4.55270191 22.2789465,4.54470591 22.9110538,5.16694969 Z M3.47939172,5.16694969 C4.11149906,4.54470591 5.12835155,4.55270191 5.75059533,5.18480925 L5.75059533,5.18480925 L9.1786276,8.66718132 C9.8145532,9.31318736 9.81514081,10.3497398 9.17994805,10.9964665 C9.17362326,11.0029061 9.16724429,11.0092923 9.16081182,11.0156244 C8.52870449,11.6378682 7.51185199,11.6298722 6.88960822,10.9977649 L6.88960822,10.9977649 L3.46157595,7.51539278 C2.82565035,6.86938674 2.82506273,5.83283425 3.46025549,5.18610762 C3.46658029,5.17966798 3.47295926,5.17328178 3.47939172,5.16694969 Z M13.3033033,-1.20061789e-11 C14.2154853,-1.20061231e-11 14.954955,0.739469632 14.954955,1.65165165 L14.954955,6.56990324 C14.954955,7.48208526 14.2154853,8.22155489 13.3033033,8.22155489 C12.3911213,8.22155489 11.6516517,7.48208526 11.6516517,6.56990324 L11.6516517,1.65165165 C11.6516517,0.739469632 12.3911213,-1.20062348e-11 13.3033033,-1.20061789e-11 Z" id="Combined-Shape" fill-opacity="0.5" fill="#FFC671" fill-rule="nonzero"></path>
            </g>
        </g>
    </g>
</svg>