<?xml version="1.0" encoding="UTF-8"?>
<svg width="20px" height="18px" viewBox="0 0 20 18" version="1.1" xmlns="http://www.w3.org/2000/svg" xmlns:xlink="http://www.w3.org/1999/xlink">
    <!-- Generator: Sketch 64 (93537) - https://sketch.com -->
    <title>ic_volume_off@1x</title>
    <desc>Created with Sketch.</desc>
    <g id="Page-1" stroke="none" stroke-width="1" fill="none" fill-rule="evenodd">
        <g id="Desktop" transform="translate(-1360.000000, -282.000000)" fill="#FFFFFF">
            <g id="ic_volume_off" transform="translate(1358.000000, 279.000000)">
                <polygon id="Bounds" fill-opacity="0" points="0 0 24 0 24 24 0 24"></polygon>
                <path d="M5.05231583,4.69778454 L5.13642161,4.77271568 L19.6826183,19.3189123 C20.0591952,19.6954893 20.0591952,20.3060413 19.6826183,20.6826183 C19.3329396,21.0322969 18.7815173,21.0572739 18.4030181,20.7575494 L18.3189123,20.6826183 L14.147,16.511 L14.1485524,20.0940461 C14.1485524,20.4447273 13.9491016,20.7638903 13.6365217,20.9135176 C13.5151071,20.971578 13.3850833,21 13.2558228,21 C13.0930373,21 12.9315074,20.9548444 12.7898705,20.8669671 L12.687664,20.7930869 L6.86776809,15.9236957 L4.89572393,15.9236957 C3.35606177,15.9236957 2.09316803,14.6980439 2.00492519,13.1577125 L2,12.9853158 L2,11.0191354 C2,9.45685322 3.2079058,8.17540559 4.72583493,8.08586632 L4.89572393,8.08086878 L5.716,8.08 L3.77271568,6.13642161 C3.39613868,5.75984462 3.39613868,5.14929267 3.77271568,4.77271568 C4.12239432,4.42303704 4.67381666,4.39805999 5.05231583,4.69778454 Z M7.30628117,9.88409219 L7.18296177,9.89277656 L4.89572169,9.89277656 C4.32444726,9.89277656 3.85257445,10.3329355 3.79219707,10.8965798 L3.7856712,11.0191354 L3.7856712,12.9853181 C3.7856712,13.565089 4.219461,14.0439013 4.77494495,14.1051662 L4.89572616,14.111788 L7.11244999,14.111788 L7.18568939,14.1086919 C7.34768925,14.1086919 7.50836486,14.1532807 7.64930064,14.2407052 L7.75101351,14.3142777 L12.3628745,18.1728758 L12.361,14.725 L7.4771912,9.84215199 C7.42186235,9.86175428 7.36462281,9.87583364 7.30628117,9.88409219 Z M20.545761,6.43982164 C21.4971253,7.83115618 22,9.81249092 22,12.1697173 C22,14.2245409 21.6178743,15.9937275 20.8896474,17.3354579 L20.739398,17.5980625 L20.739398,17.5980625 C20.5590639,17.8971635 20.1704049,17.9934432 19.8713039,17.813109 C19.8273432,17.7866042 19.7867732,17.7548455 19.7504879,17.7185353 L19.5588327,17.526733 C19.2514865,17.2191358 19.178133,16.7481815 19.3773795,16.3616862 C19.3784882,16.3595356 19.3795789,16.3574106 19.3806517,16.3553112 C19.9210763,15.297751 20.2143266,13.8390958 20.2143266,12.1697127 C20.2143266,10.2118263 19.8109586,8.54379762 19.0785534,7.47273137 C18.7974728,7.06166839 18.8980687,6.49721834 19.30318,6.21189496 C19.7081819,5.92657384 20.2643522,6.02875865 20.545761,6.43982164 Z M17.6119999,8.34285705 C18.0697551,9.34944657 18.3218453,10.7084884 18.3218453,12.169715 C18.3218453,13.0592338 18.2284406,13.9108502 18.0521031,14.6681451 L17.9714829,14.9867608 L17.9714829,14.9867608 C17.9057426,15.2266656 17.6579682,15.3678539 17.4180634,15.3021135 C17.3426079,15.2814367 17.2738398,15.2414613 17.2185429,15.1861141 L16.6857496,14.6530411 C16.4552708,14.4224658 16.3516734,14.0940109 16.4081371,13.7729232 C16.4166024,13.7247839 16.4237721,13.6812049 16.4296461,13.6421863 C16.4993086,13.1794451 16.5361719,12.6809886 16.5361719,12.169715 C16.5361719,10.9825304 16.3373751,9.86435452 15.9906821,9.10194676 C15.7840373,8.64764259 15.9795641,8.10939953 16.4272904,7.89983201 C16.8748003,7.69037547 17.4053574,7.88855288 17.6119999,8.34285705 Z M13.6365217,3.08651032 C13.9143725,3.2195124 14.1028338,3.4864686 14.1412838,3.79044479 L14.1485524,3.90598185 L14.1480768,10.9735147 C14.1480592,11.2346701 13.9363367,11.4463642 13.6751813,11.4463466 C13.5497811,11.4463382 13.4295194,11.3965194 13.340848,11.307848 L12.6549737,10.6219737 C12.4673897,10.4343897 12.362029,10.1799564 12.3620805,9.91467265 L12.3628745,5.82715446 L10.4927863,7.3913708 C10.1634476,7.6668428 9.67828007,7.64528007 9.3746777,7.3416777 L9.24291452,7.20991452 C8.93424698,6.90124698 8.93424698,6.40079801 9.24291452,6.09213046 L9.26829631,6.06785234 L9.26829631,6.06785234 L9.29473165,6.04472583 L9.29473165,6.04472583 C10.0487166,5.41413215 11.179694,4.46824163 12.687664,3.20705428 C12.9544703,2.98388386 13.3239418,2.93699169 13.6365217,3.08651032 Z" id="Combined-Shape" fill-rule="nonzero"></path>
            </g>
        </g>
    </g>
</svg>