<?xml version="1.0" encoding="UTF-8"?>
<svg width="20px" height="18px" viewBox="0 0 20 18" version="1.1" xmlns="http://www.w3.org/2000/svg" xmlns:xlink="http://www.w3.org/1999/xlink">
    <!-- Generator: Sketch 64 (93537) - https://sketch.com -->
    <title>ic_volume_on@1x</title>
    <desc>Created with Sketch.</desc>
    <g id="Page-1" stroke="none" stroke-width="1" fill="none" fill-rule="evenodd">
        <g id="Desktop" transform="translate(-1360.000000, -321.000000)" fill="#FFFFFF">
            <g id="ic_volume_on" transform="translate(1358.000000, 318.000000)">
                <polygon id="Bounds" fill-opacity="0" points="0 0 24 0 24 24 0 24"></polygon>
                <path d="M14.1485524,20.0940182 L14.1412838,20.2095552 C14.1028338,20.5135314 13.9143725,20.7804876 13.6365217,20.9134897 C13.5970111,20.9323891 13.5565915,20.9481504 13.5155852,20.9608142 L13.6365217,20.9135176 C13.592256,20.9346855 13.5468459,20.9519137 13.5007456,20.9652614 L13.4493804,20.9784718 L13.4493804,20.9784718 L13.3580162,20.9940546 L13.3580162,20.9940546 L13.2558228,21 C13.2093611,21 13.1630017,20.9963215 13.1171779,20.9890211 L12.998586,20.9616298 L12.998586,20.9616298 L12.8944149,20.9225475 L12.8944149,20.9225475 L12.780183,20.8607794 L12.687664,20.7930869 L7.147,16.157 L7.147,16.159 L6.86776809,15.9236957 L4.89572393,15.9236957 C3.35606177,15.9236957 2.09316803,14.6980439 2.00492519,13.1577125 L2,12.9853158 L2,11.0191354 L2.00492519,10.8422875 C2.08977407,9.36119961 3.26065374,8.17105067 4.71934995,8.08169171 L4.89572393,8.07630425 L6.86776809,8.07630425 L7.147,7.841 L12.687664,3.20691307 L12.8171471,3.11677596 L12.8171471,3.11677596 L12.9241937,3.06473735 L12.9241937,3.06473735 L13.0474143,3.02499846 L13.0474143,3.02499846 L13.1569224,3.00558393 L13.1985354,3.00187343 L13.1985354,3.00187343 L13.3152379,3.00187343 L13.3152379,3.00187343 L13.398056,3.01155636 L13.398056,3.01155636 C13.4322394,3.01713073 13.4666464,3.02487043 13.5006787,3.03472602 C13.5468459,3.04808626 13.592256,3.06531453 13.6365217,3.08648236 L13.5155852,3.03918585 C13.5565915,3.05184965 13.5970111,3.06761092 13.6365217,3.08651032 C13.9143725,3.2195124 14.1028338,3.4864686 14.1412838,3.79044479 L14.1485524,3.90598185 L14.1485524,20.0940182 Z M12.3628745,5.82715446 L7.75101351,9.68572228 L7.64930064,9.75929485 L7.59906302,9.78821249 L7.59906302,9.78821249 C7.5080505,9.83705039 7.40886968,9.86957027 7.30628117,9.88409219 L7.18296177,9.89277656 L4.89572169,9.89277656 C4.32444726,9.89277656 3.85257445,10.3329355 3.79219707,10.8965798 L3.7856712,11.0146819 L3.7856712,12.9808646 L3.79219707,13.1034202 C3.84826178,13.6268042 4.25913633,14.0437136 4.77494093,14.1006017 L4.89572169,14.1072234 L7.18296177,14.1072234 L7.30628117,14.1159078 C7.40886968,14.1304297 7.5080505,14.1629496 7.59942728,14.2118479 L7.64930064,14.2407052 L7.64930064,14.2407052 L7.75101351,14.3142777 L12.3628745,18.1728455 L12.3628745,5.82715446 Z M20.545761,6.43982164 C21.3791647,7.65864314 21.8684011,9.33022588 21.9769104,11.3106371 L21.9952648,11.7497337 C22.1186325,14.1037295 21.7201421,16.1086673 20.8428983,17.5478857 C20.5833886,17.9731131 20.0333285,18.1042656 19.6139491,17.8405316 C19.2589971,17.6173751 19.1113128,17.1832337 19.231292,16.7973301 L19.2760551,16.6795286 C19.2863223,16.6070066 19.3046518,16.5350777 19.3312515,16.4650762 L19.3806517,16.3553112 L19.3806517,16.3553112 C19.9210763,15.297751 20.2143266,13.8390958 20.2143266,12.1697127 L20.2089084,11.7798753 L20.2089084,11.7798753 C20.1219375,10.2566894 19.798997,8.92540166 19.2829463,7.93051406 L19.1604492,7.70696199 C19.1053445,7.61253088 19.0686256,7.5188509 19.0463594,7.42296333 L19.07,7.459 L19.0204289,7.3753447 C18.814751,6.97648155 18.9292311,6.47527039 19.30318,6.21189496 C19.7081819,5.92657384 20.2643522,6.02875865 20.545761,6.43982164 Z M17.6119999,8.34285705 C18.0697551,9.34944657 18.3218453,10.7084884 18.3218453,12.169715 C18.3218453,13.0592338 18.2284406,13.9108502 18.0521031,14.6681451 L17.9714829,14.9867608 C17.9609559,15.0251769 17.9457611,15.0610618 17.9266784,15.0939711 C17.8672399,15.2831242 17.8021948,15.4653308 17.7309512,15.6377189 C17.5402894,16.098958 17.0169719,16.3155309 16.5624247,16.1218198 C16.1076573,15.9280054 15.8934652,15.396914 16.0841292,14.9356748 C16.4040033,14.161632 16.5636552,13.0371995 16.5222231,11.850738 C16.5043799,11.3397759 16.4501432,10.8429095 16.3643737,10.3828815 L16.3383151,10.2529748 C16.3290082,10.2090896 16.3227253,10.1649592 16.3193897,10.1208607 C16.234677,9.73851884 16.1235389,9.39411031 15.9906821,9.10194676 C15.7840373,8.64764259 15.9795641,8.10939953 16.4272904,7.89983201 C16.8748003,7.69037547 17.4053574,7.88855288 17.6119999,8.34285705 Z" id="Shape" fill-rule="nonzero"></path>
            </g>
        </g>
    </g>
</svg>