<svg width="59" height="14" viewBox="0 0 59 14" fill="none" xmlns="http://www.w3.org/2000/svg">
<path d="M2.65392 10.6239V0.399902H0.169922V12.9999H7.45992V10.6239H2.65392Z" fill="#38157B"/>
<path d="M15.4273 3.9999V5.0619C14.7793 4.2519 13.8073 3.7479 12.4933 3.7479C10.0993 3.7479 8.11931 5.8179 8.11931 8.4999C8.11931 11.1819 10.0993 13.2519 12.4933 13.2519C13.8073 13.2519 14.7793 12.7479 15.4273 11.9379V12.9999H17.7493V3.9999H15.4273ZM12.9253 11.0379C11.5033 11.0379 10.4413 10.0119 10.4413 8.4999C10.4413 6.9879 11.5033 5.9619 12.9253 5.9619C14.3653 5.9619 15.4273 6.9879 15.4273 8.4999C15.4273 10.0119 14.3653 11.0379 12.9253 11.0379Z" fill="#38157B"/>
<path d="M25.7949 3.9999V8.8599C25.7949 10.4259 24.9489 11.0919 23.8149 11.0919C22.7709 11.0919 22.0329 10.4619 22.0329 9.2379V3.9999H19.7109V9.5259C19.7109 11.9199 21.2049 13.2519 23.1129 13.2519C24.3189 13.2519 25.2549 12.8019 25.7949 11.9919V12.9999H28.1169V3.9999H25.7949Z" fill="#38157B"/>
<path d="M35.2476 3.7479C34.0416 3.7479 33.1056 4.1979 32.5656 5.0079V3.9999H30.2436V12.9999H32.5656V8.1399C32.5656 6.5739 33.4116 5.9079 34.5456 5.9079C35.5896 5.9079 36.3276 6.5379 36.3276 7.7619V12.9999H38.6496V7.4739C38.6496 5.0799 37.1556 3.7479 35.2476 3.7479Z" fill="#38157B"/>
<path d="M44.9162 13.2519C46.6802 13.2519 48.2102 12.3159 48.9842 10.9119L46.9682 9.7599C46.6082 10.4979 45.8342 10.9479 44.8982 10.9479C43.5122 10.9479 42.4862 9.9219 42.4862 8.4999C42.4862 7.0599 43.5122 6.0339 44.8982 6.0339C45.8162 6.0339 46.5902 6.5019 46.9502 7.2399L48.9482 6.0699C48.2102 4.6839 46.6802 3.7479 44.9162 3.7479C42.1802 3.7479 40.1642 5.8179 40.1642 8.4999C40.1642 11.1819 42.1802 13.2519 44.9162 13.2519Z" fill="#38157B"/>
<path d="M55.2163 3.7479C54.0103 3.7479 53.0743 4.1979 52.5343 5.0079V0.399902H50.2123V12.9999H52.5343V8.1399C52.5343 6.5739 53.3803 5.9079 54.5143 5.9079C55.5583 5.9079 56.2963 6.5379 56.2963 7.7619V12.9999H58.6183V7.4739C58.6183 5.0799 57.1243 3.7479 55.2163 3.7479Z" fill="#38157B"/>
</svg>
